<svg width="19" height="19" viewBox="0 0 19 19" fill="none" xmlns="http://www.w3.org/2000/svg">
<g clip-path="url(#clip0_3_36)">
<path fill-rule="evenodd" clip-rule="evenodd" d="M4.09464 9.5C4.09464 8.88295 4.19706 8.29127 4.38009 7.73641L1.17829 5.2915C0.554259 6.55841 0.202759 7.98609 0.202759 9.5C0.202759 11.0127 0.553962 12.4394 1.17695 13.7055L4.37697 11.2559C4.19573 10.7035 4.09464 10.1141 4.09464 9.5Z" fill="#808080"/>
<path fill-rule="evenodd" clip-rule="evenodd" d="M9.71626 3.88639C11.0568 3.88639 12.2676 4.36139 13.2189 5.13861L15.9864 2.375C14.3 0.906805 12.1379 0 9.71626 0C5.95664 0 2.72545 2.14997 1.17828 5.2915L4.37993 7.73641C5.11767 5.49709 7.22058 3.88639 9.71626 3.88639Z" fill="#8F8F8F"/>
<path fill-rule="evenodd" clip-rule="evenodd" d="M9.71626 15.1136C7.22073 15.1136 5.11781 13.5029 4.38008 11.2636L1.17828 13.7081C2.72545 16.85 5.95664 19 9.71626 19C12.0366 19 14.2521 18.176 15.9147 16.6323L12.8756 14.2828C12.0181 14.823 10.9382 15.1136 9.71626 15.1136Z" fill="#6E6E6E"/>
<path fill-rule="evenodd" clip-rule="evenodd" d="M18.7972 9.5C18.7972 8.93861 18.7107 8.33402 18.581 7.77278H9.71628V11.4432H14.819C14.5638 12.6947 13.8694 13.6567 12.8756 14.2828L15.9147 16.6323C17.6612 15.0113 18.7972 12.5966 18.7972 9.5Z" fill="#9C9C9C"/>
</g>
<defs>
<clipPath id="clip0_3_36">
<rect width="19" height="19" fill="white"/>
</clipPath>
</defs>
</svg>
