<svg width="19" height="19" viewBox="0 0 19 19" fill="none" xmlns="http://www.w3.org/2000/svg">
<g clip-path="url(#clip0_3_48)">
<mask id="mask0_3_48" style="mask-type:luminance" maskUnits="userSpaceOnUse" x="0" y="0" width="19" height="19">
<path d="M5.58512 0.112713C4.57935 0.160184 3.89238 0.321297 3.29207 0.556519C2.67065 0.798774 2.14389 1.12342 1.61987 1.6496C1.09524 2.17607 0.773033 2.70378 0.532612 3.32583C0.299848 3.92765 0.14212 4.61494 0.0976918 5.62135C0.0536042 6.62962 0.0434898 6.9512 0.0484052 9.51809C0.0533018 12.0847 0.0646261 12.4068 0.112703 13.4154C0.160779 14.4209 0.321287 15.1076 0.556509 15.7082C0.799066 16.3296 1.12339 16.8561 1.64987 17.3804C2.17605 17.9048 2.70404 18.2267 3.32639 18.4674C3.92758 18.6999 4.61517 18.8582 5.62127 18.9023C6.62949 18.9467 6.95138 18.9565 9.51763 18.9516C12.0851 18.9467 12.407 18.9354 13.4152 18.8876C14.421 18.8395 15.1073 18.6784 15.7083 18.4438C16.3297 18.2006 16.8564 17.8769 17.3804 17.3504C17.9045 16.8242 18.2267 16.2962 18.4671 15.6739C18.6999 15.0727 18.8582 14.3851 18.902 13.3796C18.9461 12.3707 18.9565 12.0485 18.9516 9.48194C18.9467 6.91507 18.9351 6.59349 18.8873 5.58553C18.8395 4.57913 18.6784 3.89277 18.4435 3.29186C18.2007 2.67043 17.8766 2.14426 17.3505 1.61961C16.8243 1.09557 16.2963 0.77276 15.6739 0.532944C15.0724 0.30018 14.3852 0.141525 13.3791 0.0980422C12.3708 0.0533118 12.0489 0.0435188 9.48178 0.0484153C6.91525 0.0533308 6.59339 0.0643526 5.58512 0.112732M5.69539 17.201C4.77383 17.1608 4.27338 17.0077 3.93985 16.8794C3.49822 16.7085 3.18306 16.5036 2.85137 16.1743C2.5203 15.8439 2.31479 15.5296 2.14236 15.0889C2.0128 14.7554 1.85692 14.2555 1.81374 13.3339C1.76686 12.3376 1.75616 12.0387 1.75154 9.51471C1.74666 6.99134 1.75583 6.6924 1.79934 5.69518C1.83885 4.77422 1.99291 4.27316 2.12092 3.93994C2.29182 3.49766 2.49608 3.18313 2.82594 2.85144C3.15641 2.51974 3.47064 2.31484 3.91168 2.14242C4.24489 2.01224 4.74473 1.85757 5.66598 1.81379C6.6629 1.76662 6.96149 1.75651 9.48485 1.75161C12.0088 1.74669 12.3077 1.75558 13.305 1.79938C14.2259 1.8395 14.727 1.99203 15.0599 2.12097C15.5018 2.29187 15.817 2.49554 16.1484 2.82601C16.4797 3.15648 16.6852 3.47012 16.8577 3.91205C16.9878 4.24435 17.1425 4.74482 17.186 5.66578C17.2334 6.6627 17.2442 6.96162 17.2488 9.48501C17.2537 12.009 17.2445 12.3079 17.2007 13.3045C17.1606 14.2261 17.0077 14.7269 16.8791 15.0607C16.7082 15.5021 16.5039 15.8172 16.1738 16.1489C15.8436 16.4794 15.5294 16.6855 15.088 16.8579C14.7554 16.9878 14.255 17.1428 13.3343 17.1866C12.3375 17.2334 12.0388 17.2441 9.51456 17.2487C6.99121 17.2536 6.6926 17.2441 5.69539 17.201ZM13.4014 4.44713C13.4026 5.07315 13.9117 5.58002 14.5377 5.57881C15.164 5.57759 15.6709 5.06886 15.67 4.44282C15.6687 3.81681 15.1597 3.30963 14.5334 3.31086C13.9071 3.31207 13.4002 3.8211 13.4014 4.44711M4.64642 9.50919C4.65162 12.19 6.82889 14.3584 9.50904 14.3532C12.1895 14.348 14.3591 12.1713 14.3539 9.49051C14.3487 6.81062 12.1711 4.64097 9.49037 4.64617C6.81019 4.65139 4.64121 6.829 4.64642 9.50919ZM6.34896 9.50582C6.34589 7.76588 7.75412 6.35243 9.49373 6.34936C11.2337 6.346 12.6474 7.75362 12.6508 9.49387C12.6541 11.2341 11.2459 12.6473 9.50568 12.6506C7.76607 12.654 6.35232 11.2461 6.34896 9.50582Z" fill="white"/>
</mask>
<g mask="url(#mask0_3_48)">
<mask id="mask1_3_48" style="mask-type:luminance" maskUnits="userSpaceOnUse" x="-1" y="-1" width="21" height="21">
<path d="M-0.716614 -0.693058H19.7013V19.7251H-0.716614V-0.693058Z" fill="white"/>
</mask>
<g mask="url(#mask1_3_48)">
<mask id="mask2_3_48" style="mask-type:luminance" maskUnits="userSpaceOnUse" x="-1" y="-1" width="21" height="21">
<path d="M-0.811127 -0.787605H19.7958V19.8196H-0.811127V-0.787605Z" fill="white"/>
</mask>
<g mask="url(#mask2_3_48)">
<mask id="mask3_3_48" style="mask-type:luminance" maskUnits="userSpaceOnUse" x="-1" y="-1" width="21" height="21">
<path d="M-0.811127 -0.787605H19.7958V19.8196H-0.811127V-0.787605Z" fill="white"/>
</mask>
<g mask="url(#mask3_3_48)">
<rect x="-0.817841" y="-0.79063" width="20.6176" height="20.6176" fill="#858585"/>
</g>
</g>
</g>
</g>
</g>
<defs>
<clipPath id="clip0_3_48">
<rect width="19" height="19" fill="white"/>
</clipPath>
</defs>
</svg>
