<svg width="15" height="15" viewBox="0 0 15 15" fill="none" xmlns="http://www.w3.org/2000/svg">
<g id="Layer_1">
<g id="Group">
<g id="Group_2">
<path id="Vector" d="M5.85124 5.72376C5.85124 5.72376 3.87624 5.94251 2.55874 6.08876C2.43999 6.10313 2.33499 6.18251 2.29562 6.30313C2.25624 6.42376 2.29562 6.54938 2.38312 6.62876C3.36187 7.52188 4.83249 8.85938 4.83249 8.85938C4.83124 8.85938 4.42874 10.805 4.16124 12.1031C4.13874 12.2206 4.18124 12.345 4.28374 12.4194C4.38562 12.4938 4.51687 12.495 4.61999 12.4369C5.77249 11.7819 7.49874 10.7969 7.49874 10.7969C7.49874 10.7969 9.22562 11.7819 10.3762 12.4375C10.4812 12.495 10.6125 12.4938 10.7144 12.4194C10.8169 12.345 10.8594 12.2206 10.8362 12.1038C10.5687 10.805 10.1669 8.85938 10.1669 8.85938C10.1669 8.85938 11.6375 7.52188 12.6162 6.63063C12.7037 6.54876 12.7425 6.42313 12.7037 6.30313C12.665 6.18313 12.56 6.10376 12.4412 6.09001C11.1237 5.94251 9.14812 5.72376 9.14812 5.72376C9.14812 5.72376 8.32937 3.91251 7.78374 2.70501C7.73249 2.59688 7.62499 2.52126 7.49874 2.52126C7.37249 2.52126 7.26437 2.59751 7.21562 2.70501C6.66937 3.91251 5.85124 5.72376 5.85124 5.72376Z" fill="#212121"/>
</g>
</g>
</g>
</svg>
