<svg width="19" height="19" viewBox="0 0 19 19" fill="none" xmlns="http://www.w3.org/2000/svg">
<g id="Layer_1">
<g id="Group">
<g id="Group_2">
<path id="Vector" d="M7.41159 7.25009C7.41159 7.25009 4.90992 7.52717 3.24109 7.71242C3.09067 7.73063 2.95767 7.83117 2.90779 7.98396C2.85792 8.13675 2.90779 8.29588 3.01863 8.39642C4.25838 9.52771 6.12117 11.2219 6.12117 11.2219C6.11959 11.2219 5.60975 13.6863 5.27092 15.3306C5.24242 15.4795 5.29625 15.637 5.42609 15.7312C5.55513 15.8254 5.72138 15.827 5.852 15.7534C7.31184 14.9237 9.49842 13.676 9.49842 13.676C9.49842 13.676 11.6858 14.9237 13.1433 15.7542C13.2763 15.827 13.4425 15.8254 13.5715 15.7312C13.7014 15.637 13.7552 15.4795 13.7259 15.3314C13.3871 13.6863 12.878 11.2219 12.878 11.2219C12.878 11.2219 14.7408 9.52771 15.9806 8.3988C16.0914 8.29509 16.1405 8.13596 16.0914 7.98396C16.0423 7.83196 15.9093 7.73142 15.7589 7.71401C14.0901 7.52717 11.5876 7.25009 11.5876 7.25009C11.5876 7.25009 10.5505 4.95584 9.85942 3.42634C9.7945 3.28938 9.65834 3.19359 9.49842 3.19359C9.3385 3.19359 9.20154 3.29017 9.13979 3.42634C8.44788 4.95584 7.41159 7.25009 7.41159 7.25009Z" fill="#E4E4DE"/>
</g>
</g>
</g>
</svg>
